v -0.6883410215 -0.04139300063 -0.0004809999955
vn 0 6.123234263e-17 1
v 0.7598170042 -0.3108629882 -0.0004809999955
vn 0 6.123234263e-17 1
v -0.8767255545 1.410065055 -0.0004809999955
vn 0 6.123234263e-17 1
v -0.7188724279 2.301831484 -0.0004809999955
vn 0 6.123234263e-17 1
v 0.760571003 -0.1979299933 -0.0004809999955
vn 0 6.123234263e-17 1
v -0.3680320084 0.01392699964 -0.0004809999955
vn 0 6.123234263e-17 1
v -1.248989105 -2.036689043 -0.0004809999955
vn -1.861049412e-07 -2.603961136e-08 1
v -0.7696740031 -0.4255569875 -0.0004809999955
vn 0 6.123234263e-17 1
v 0.7602570057 -0.5063049793 -0.0004809999955
vn 0 6.123234263e-17 1
v 0.5578299761 0.0003930002276 -0.0004809999955
vn 0 6.123234263e-17 1
v 0.7016720176 -0.1030990034 -0.0004809999955
vn 0 6.123234263e-17 1
v 0.5076900125 -0.5979040265 -0.0004809999955
vn 0 6.123234263e-17 1
v -0.6001080275 0.02865000069 -0.0004809999955
vn 0 6.123234263e-17 1
v -0.9892560244 -0.6815389991 -0.0004809999955
vn 0 6.123234263e-17 1
v -1.150663733 1.990765333 -0.0004809999955
vn 0 6.123234263e-17 1
v -0.490316987 0.5360900164 -0.0004809999955
vn 0 6.123234263e-17 1
v 0.6766149998 -2.441768885 -0.0004820000031
vn 0 6.123234263e-17 1
v -0.7712690234 -2.432440996 -0.0004820000031
vn 0 6.123234263e-17 1
v -0.9958040118 -2.24997592 -0.0004820000031
vn 0 6.123234263e-17 1
v -0.8809810281 -2.388993025 -0.0004820000031
vn 0 6.123234263e-17 1
v -0.7449790239 -0.1301500052 -0.0004809999955
vn 0 6.123234263e-17 1
v 0.9029889703 -2.387084007 -0.0004820000031
vn 0 6.123234263e-17 1
v 1.191676021 -1.284060001 -0.0004820000031
vn -1.143650792e-07 1.063757971e-08 1
v 1.109473944 -0.8576380014 -0.0004809999955
vn 2.916821096e-08 -1.804857675e-06 1
v -1.186095953 -2.081855059 -0.0004820000031
vn -1.354671042e-07 -5.901461918e-06 1
v -1.189972997 -1.578338861 -0.0004820000031
vn -2.806004034e-07 1.896166054e-06 1
v 0.935953021 -0.6532629728 -0.0004809999955
vn 0 6.123234263e-17 1
v -1.118731022 -0.918596983 -0.0004809999955
vn 3.38613475e-08 -1.237717811e-06 1
v 0.6375637054 0.0648149997 -0.0004809999955
vn 0 6.123234263e-17 1
v 0.8493474722 2.157398939 -0.0004809999955
vn 0 6.123234263e-17 1
v -0.3268620074 1.863283992 -0.0004809999955
vn 0 6.123234263e-17 1
v 1.160707474 1.638919234 -0.0004809999955
vn 0 6.123234263e-17 1
v 0.5704389811 0.4752080142 -0.0004809999955
vn 0 6.123234263e-17 1
v 1.188999057 -0.1792152524 -0.0004809999955
vn 0 6.123234263e-17 1
v -1.205947638 -0.1643544436 -0.0004809999955
vn 0 6.123234263e-17 1
v -0.6431365013 0.0698935017 -0.0004809999955
vn 0 6.123234263e-17 1
v 0.2171339989 2.48884511 -0.0004809999955
vn 0 6.123234263e-17 1
v 1.133080006 -2.184746981 -0.0004820000031
vn -1.079351648e-07 -2.432851261e-06 1
v 0.5747247338 2.364878416 -0.0004809999955
vn 0 6.123234263e-17 1
v 0.8983596563 1.187563658 -0.0004809999955
vn 0 6.123234263e-17 1
v 0.8400310278 1.069854975 -0.0004809999955
vn 0 6.123234263e-17 1
v 1.23893404 -1.610353947 -0.0004809999955
vn -2.390212899e-07 1.615193923e-06 1
v 0.4446929991 1.748167992 -0.0004809999955
vn 0 6.123234263e-17 1
v 1.001113057 -2.30291605 -0.0004820000031
vn 0 6.123234263e-17 1
v -1.163820982 -1.29717803 -0.0004820000031
vn 2.953352585e-08 -1.827462484e-06 1
v 1.140290022 1.057329059 -0.0004809999955
vn 0 6.123234263e-17 1
v 0.7718575001 0.628681004 -0.0004809999955
vn 0 6.123234263e-17 1
v 1.259784579 0.1047604978 -0.0004809999955
vn 0 6.123234263e-17 1
v -0.8341612816 0.2437523603 -0.0004809999955
vn 0 6.123234263e-17 1
v -0.1672279984 0.5364689827 -0.0004809999955
vn 0 6.123234263e-17 1
v -1.038531184 0.01299024839 -0.0004809999955
vn 0 6.123234263e-17 1
v 0.9762960076 1.817819834 -0.0004809999955
vn 0 6.123234263e-17 1
v -0.07972150296 2.513689995 -0.0004809999955
vn 0 6.123234263e-17 1
v -1.010968089 0.4942115247 -0.0004809999955
vn 0 6.123234263e-17 1
v -1.19875133 0.2172840089 -0.0004809999955
vn 0 6.123234263e-17 1
v -1.036029458 1.652148366 -0.0004809999955
vn 0 6.123234263e-17 1
v -0.7723044753 0.6509330273 -0.0004809999955
vn 0 6.123234263e-17 1
v -0.947198987 2.175000906 -0.0004809999955
vn 0 6.123234263e-17 1
v 1.011522055 0.01952837408 -0.0004809999955
vn 0 6.123234263e-17 1
v 1.045783043 0.4395804703 -0.0004809999955
vn 0 6.123234263e-17 1
v 1.063666463 0.7322554588 -0.0004809999955
vn 0 6.123234263e-17 1
v 0.5029940009 0.7156184912 -0.0004809999955
vn 0 6.123234263e-17 1
v -0.355791986 -2.479312897 -0.0004820000031
vn 0 6.123234263e-17 1
v 0.8361185193 0.2508606315 -0.0004809999955
vn 0 6.123234263e-17 1
v -0.8169939518 1.07177496 -0.0004809999955
vn 0 6.123234263e-17 1
v 1.299824953 -2.045541048 -0.0004809999955
vn -7.148302927e-08 -3.114072342e-06 1
v 0.2023530006 -2.485928059 -0.0004820000031
vn 0 6.123234263e-17 1
v 1.227445006 1.397417307 -0.0004809999955
vn 0 6.123234263e-17 1
v -0.4147434831 2.462160587 -0.0004809999955
vn 0 6.123234263e-17 1
# mm_gid 0
g mmGroup0
f 12//12 21//21 8//8 
f 12//12 8//8 14//14 
f 12//12 9//9 2//2 
f 27//27 12//12 24//24 
f 1//1 11//11 6//6 
f 13//13 1//1 6//6 
f 12//12 5//5 11//11 
f 1//1 21//21 12//12 
f 17//17 22//22 20//20 
f 22//22 44//44 19//19 
f 19//19 44//44 38//38 
f 63//63 67//67 17//17 
f 7//7 66//66 42//42 
f 25//25 38//38 66//66 
f 45//45 23//23 24//24 
f 26//26 42//42 23//23 
f 28//28 24//24 12//12 
f 5//5 12//12 2//2 
f 14//14 28//28 12//12 
f 11//11 10//10 6//6 
f 12//12 11//11 1//1 
f 17//17 20//20 18//18 
f 22//22 19//19 20//20 
f 19//19 38//38 25//25 
f 63//63 17//17 18//18 
f 7//7 42//42 26//26 
f 29//29 50//50 36//36 
f 50//50 29//29 33//33 
f 36//36 49//49 50//50 
f 68//68 32//32 40//40 
f 56//56 31//31 15//15 
f 62//62 50//50 33//33 
f 49//49 36//36 16//16 
f 16//16 50//50 57//57 
f 62//62 47//47 41//41 
f 65//65 57//57 62//62 
f 30//30 39//39 53//53 
f 31//31 30//30 53//53 
f 58//58 15//15 31//31 
f 32//32 52//52 40//40 
f 40//40 47//47 61//61 
f 53//53 39//39 37//37 
f 52//52 31//31 43//43 
f 61//61 47//47 64//64 
f 60//60 61//61 64//64 
f 64//64 59//59 34//34 
f 48//48 60//60 64//64 
f 33//33 64//64 47//47 
f 65//65 41//41 40//40 
f 31//31 3//3 43//43 
f 3//3 40//40 43//43 
f 29//29 64//64 33//33 
f 51//51 49//49 55//55 
f 50//50 16//16 36//36 
f 35//35 51//51 55//55 
f 54//54 16//16 57//57 
f 55//55 16//16 54//54 
f 50//50 62//62 57//57 
f 25//25 66//66 7//7 
f 45//45 24//24 28//28 
f 26//26 23//23 45//45 
f 41//41 65//65 62//62 
f 12//12 27//27 9//9 
f 3//3 31//31 56//56 
f 40//40 46//46 68//68 
f 53//53 58//58 31//31 
f 40//40 61//61 46//46 
f 58//58 53//53 4//4 
f 30//30 31//31 52//52 
f 48//48 64//64 34//34 
f 33//33 47//47 62//62 
f 65//65 40//40 3//3 
f 4//4 53//53 69//69 
f 40//40 52//52 43//43 
f 49//49 16//16 55//55 
