v -0.7696740031 -0.4255569875 -0.0004809999955
vn 0 6.123234263e-17 1
v 0.935953021 -0.6532629728 -0.0004809999955
vn 0 6.123234263e-17 1
v 0.760571003 -0.1979299933 -0.0004809999955
vn 0 6.123234263e-17 1
v -0.6883410215 -0.04139300063 -0.0004809999955
vn 0 6.123234263e-17 1
v -0.7712690234 -2.432440996 -0.0004820000031
vn 0 6.123234263e-17 1
v -0.3680320084 0.01392699964 -0.0004809999955
vn 0 6.123234263e-17 1
v -1.118731022 -0.918596983 -0.0004809999955
vn 3.38613475e-08 -1.237717811e-06 1
v -0.7449790239 -0.1301500052 -0.0004809999955
vn 0 6.123234263e-17 1
v 1.191676021 -1.284060001 -0.0004820000031
vn -1.143650792e-07 1.063757971e-08 1
v 0.9029889703 -2.387084007 -0.0004820000031
vn 0 6.123234263e-17 1
v -0.6001080275 0.02865000069 -0.0004809999955
vn 0 6.123234263e-17 1
v 1.299824953 -2.045541048 -0.0004809999955
vn -7.148302927e-08 -3.114072342e-06 1
v 0.7602570057 -0.5063049793 -0.0004809999955
vn 0 6.123234263e-17 1
v -0.9958040118 -2.24997592 -0.0004820000031
vn 0 6.123234263e-17 1
v -0.8809810281 -2.388993025 -0.0004820000031
vn 0 6.123234263e-17 1
v -1.189972997 -1.578338861 -0.0004820000031
vn -2.806004034e-07 1.896166054e-06 1
v 0.7598170042 -0.3108629882 -0.0004809999955
vn 0 6.123234263e-17 1
v 1.001113057 -2.30291605 -0.0004820000031
vn 0 6.123234263e-17 1
v 0.6766149998 -2.441768885 -0.0004820000031
vn 0 6.123234263e-17 1
v -0.1672279984 0.5364689827 -0.0004809999955
vn 0 6.123234263e-17 1
v -0.6431365013 0.0698935017 -0.0004809999955
vn 0 6.123234263e-17 1
v 0.6375637054 0.0648149997 -0.0004809999955
vn 0 6.123234263e-17 1
v 1.096736073 -0.1830220073 -0.0004809999955
vn 0 6.123234263e-17 1
v 0.7408480644 0.2703062296 -0.0004809999955
vn 0 6.123234263e-17 1
v -0.698374033 0.213173002 -0.0004809999955
vn 0 -6.123234263e-17 -1
v 0.7718575001 0.628681004 -0.0004809999955
vn 0 6.123234263e-17 1
v 1.296694756 0.01008149888 -0.0004809999955
vn 0 6.123234263e-17 1
v 1.222874522 0.1994394958 -0.0004809999955
vn 0 6.123234263e-17 1
v -1.086194992 1.717502952 -0.0004809999955
vn 0 6.123234263e-17 1
v 0.6721259952 2.313898087 -0.0004809999955
vn 0 6.123234263e-17 1
v -1.19519949 1.926930547 -0.0004809999955
vn 0 6.123234263e-17 1
v -1.234344721 0.1143380105 -0.0004809999955
vn 0 6.123234263e-17 1
v -0.7188724279 2.301831484 -0.0004809999955
vn 0 6.123234263e-17 1
v -1.012136936 -0.05886700377 -0.0004809999955
vn 0 6.123234263e-17 1
v -1.120893002 -0.2064865083 -0.0004809999955
vn 0 6.123234263e-17 1
v -0.7028290033 0.3083789945 -0.0004809999955
vn 0 6.123234263e-17 1
v -0.8169939518 1.07177496 -0.0004809999955
vn 0 6.123234263e-17 1
v -0.7723044753 0.6509330273 -0.0004809999955
vn 0 6.123234263e-17 1
v -1.064925551 0.08484750241 -0.0004809999955
vn 0 6.123234263e-17 1
v 1.140290022 1.057329059 -0.0004809999955
vn 0 6.123234263e-17 1
v 0.8400310278 1.069854975 -0.0004809999955
vn 0 6.123234263e-17 1
v -1.106127977 2.0546 -0.0004809999955
vn 0 6.123234263e-17 1
v -0.947198987 2.175000906 -0.0004809999955
vn 0 6.123234263e-17 1
v 0.885086 1.076871037 -0.0004809999955
vn 0 6.123234263e-17 1
v 0.9724439979 1.720314026 -0.0004809999955
vn 0 6.123234263e-17 1
v -0.3197480142 2.491348028 -0.0004809999955
vn 0 6.123234263e-17 1
v -0.1602299958 2.515677929 -0.0004809999955
vn 0 6.123234263e-17 1
v 1.07770896 0.8005959392 -0.0004809999955
vn 0 6.123234263e-17 1
v 1.133080006 -2.184746981 -0.0004820000031
vn -1.079351648e-07 -2.432851261e-06 1
v -0.9892560244 -0.6815389991 -0.0004809999955
vn 0 6.123234263e-17 1
v 0.4154619873 2.441515923 -0.0004809999955
vn 0 6.123234263e-17 1
v 0.9801479578 1.915325522 -0.0004809999955
vn 0 6.123234263e-17 1
v 0.2171339989 2.48884511 -0.0004809999955
vn 0 6.123234263e-17 1
v 0.8008369803 2.210033894 -0.0004809999955
vn 0 6.123234263e-17 1
v 1.011522055 0.01952837408 -0.0004809999955
vn 0 6.123234263e-17 1
v 0.9313889742 0.2314150184 -0.0004809999955
vn 0 6.123234263e-17 1
v 1.28126204 -0.1754084975 -0.0004809999955
vn 0 6.123234263e-17 1
v -0.8767255545 1.410065055 -0.0004809999955
vn 0 6.123234263e-17 1
v 0.9116332531 1.298256159 -0.0004809999955
vn 0 6.123234263e-17 1
v 1.045783043 0.4395804703 -0.0004809999955
vn 0 6.123234263e-17 1
v -0.7890350223 0.3052139878 -0.0004809999955
vn 0 6.123234263e-17 1
v -0.9461694956 0.227519989 -0.0004809999955
vn 0 6.123234263e-17 1
v -1.163158059 0.3202300072 -0.0004809999955
vn 0 6.123234263e-17 1
v -1.291002154 -0.1222223788 -0.0004809999955
vn 0 6.123234263e-17 1
v -1.248989105 -2.036689043 -0.0004809999955
vn -1.861049412e-07 -2.603961136e-08 1
v 0.2023530006 -2.485928059 -0.0004820000031
vn 0 6.123234263e-17 1
v 0.5578299761 0.0003930002276 -0.0004809999955
vn 0 6.123234263e-17 1
v -0.9555669427 0.536149025 -0.0004809999955
vn 0 6.123234263e-17 1
v -0.355791986 -2.479312897 -0.0004820000031
vn 0 6.123234263e-17 1
v -1.066369057 0.4522740245 -0.0004809999955
vn 0 6.123234263e-17 1
v 1.160707474 1.638919234 -0.0004809999955
vn 0 6.123234263e-17 1
v 0.0007869999972 2.511702061 -0.0004809999955
vn 0 6.123234263e-17 1
v 0.897857964 2.104763985 -0.0004809999955
vn 0 6.123234263e-17 1
v -0.5097389817 2.432972908 -0.0004809999955
vn 0 6.123234263e-17 1
v 0.5391849875 2.390201092 -0.0004809999955
vn 0 6.123234263e-17 1
v 1.227445006 1.397417307 -0.0004809999955
vn 0 6.123234263e-17 1
v -0.9858639836 1.586794019 -0.0004809999955
vn 0 6.123234263e-17 1
v 1.23893404 -1.610353947 -0.0004809999955
vn -2.390212899e-07 1.615193923e-06 1
v -1.186095953 -2.081855059 -0.0004820000031
vn -1.354671042e-07 -5.901461918e-06 1
v 0.5076900125 -0.5979040265 -0.0004809999955
vn 0 6.123234263e-17 1
v 1.109473944 -0.8576380014 -0.0004809999955
vn 2.916821096e-08 -1.804857675e-06 1
v 0.7016720176 -0.1030990034 -0.0004809999955
vn 0 6.123234263e-17 1
v -1.163820982 -1.29717803 -0.0004820000031
vn 2.953352585e-08 -1.827462484e-06 1
v 1.049623966 0.6639149785 -0.0004809999955
vn 0 6.123234263e-17 1
# mm_gid 0
g mmGroup0
f 80//80 8//8 1//1 
f 80//80 1//1 50//50 
f 80//80 13//13 17//17 
f 2//2 80//80 81//81 
f 4//4 82//82 6//6 
f 11//11 4//4 6//6 
f 80//80 3//3 82//82 
f 4//4 8//8 80//80 
f 19//19 10//10 15//15 
f 10//10 18//18 14//14 
f 14//14 18//18 49//49 
f 69//69 66//66 19//19 
f 65//65 12//12 78//78 
f 79//79 49//49 12//12 
f 83//83 9//9 81//81 
f 16//16 78//78 9//9 
f 7//7 81//81 80//80 
f 3//3 80//80 17//17 
f 50//50 7//7 80//80 
f 82//82 67//67 6//6 
f 80//80 82//82 4//4 
f 19//19 15//15 5//5 
f 10//10 14//14 15//15 
f 14//14 49//49 79//79 
f 69//69 19//19 5//5 
f 65//65 78//78 16//16 
f 22//22 20//20 21//21 
f 20//20 22//22 24//24 
f 21//21 25//25 20//20 
f 23//23 27//27 55//55 
f 23//23 57//57 27//27 
f 76//76 71//71 59//59 
f 29//29 30//30 31//31 
f 26//26 20//20 24//24 
f 25//25 21//21 36//36 
f 36//36 20//20 38//38 
f 37//37 38//38 26//26 
f 59//59 44//44 40//40 
f 43//43 42//42 30//30 
f 71//71 45//45 59//59 
f 44//44 26//26 48//48 
f 30//30 47//47 46//46 
f 30//30 51//51 53//53 
f 84//84 26//26 24//24 
f 60//60 84//84 24//24 
f 56//56 55//55 27//27 
f 27//27 60//60 56//56 
f 84//84 48//48 26//26 
f 37//37 41//41 59//59 
f 30//30 58//58 52//52 
f 58//58 59//59 52//52 
f 62//62 61//61 63//63 
f 63//63 32//32 62//62 
f 39//39 62//62 32//32 
f 20//20 36//36 21//21 
f 64//64 34//34 32//32 
f 34//34 39//39 32//32 
f 68//68 36//36 38//38 
f 63//63 36//36 70//70 
f 20//20 26//26 38//38 
f 70//70 36//36 68//68 
f 41//41 37//37 26//26 
f 58//58 30//30 77//77 
f 77//77 30//30 29//29 
f 59//59 40//40 76//76 
f 54//54 30//30 73//73 
f 44//44 48//48 40//40 
f 47//47 30//30 72//72 
f 79//79 12//12 65//65 
f 83//83 81//81 7//7 
f 16//16 9//9 83//83 
f 43//43 30//30 33//33 
f 80//80 2//2 13//13 
f 30//30 46//46 74//74 
f 51//51 30//30 75//75 
f 30//30 53//53 72//72 
f 28//28 60//60 27//27 
f 73//73 30//30 52//52 
f 24//24 56//56 60//60 
f 64//64 35//35 34//34 
f 37//37 59//59 58//58 
f 33//33 30//30 74//74 
f 59//59 45//45 52//52 
f 61//61 36//36 63//63 
f 31//31 30//30 42//42 
