v -1.10315299 -0.07691299915 1.675476098e-25
vn -2.443389369e-24 -2.671890819e-24 1
v -1 2.211910009 -2.967540109e-24
vn -3.800195022e-24 -2.671890819e-24 1
v 0.931746006 -0.2527140081 5.044332601e-25
vn 2.969053341e-24 -2.671890819e-24 1
v 0.6592540741 -1.940405965 -3.452212699e-24
vn 4.724708211e-23 -6.222889492e-23 1
v 0.9163635373 0.1362459958 4.594167647e-25
vn -3.979311708e-25 -2.671890819e-24 1
v 0.9888820052 -0.4988359809 -4.506497097e-25
vn -1.299672697e-24 -2.671890819e-24 1
v -0.769130528 -0.3999477625 1.495201734e-24
vn 2.650001457e-25 -2.671890819e-24 1
v -1.209375024 0.2153629959 3.277402503e-25
vn 2.681410447e-25 -2.671890819e-24 1
v -0.8680190444 -0.03955499455 6.93515047e-26
vn 4.440924415e-24 3.945554082e-24 1
v -0.7207850218 0.2834790051 -4.046370062e-25
vn -8.061517107e-24 -2.671890819e-24 1
v 0.7141925097 0.3516020179 -6.73771276e-25
vn 8.421596612e-24 -2.671890819e-24 1
v -1.029600978 1.032783031 -3.614758672e-24
vn -8.354851485e-25 -2.671890819e-24 1
v 1.079352021 0.3827964962 6.634173288e-25
vn -1.110107647e-24 -2.671890819e-24 1
v -0.85263592 0.7097979784 -4.84470494e-25
vn 7.200245575e-25 3.945554082e-24 1
v -1.125128031 -1.580013514 -6.581967853e-24
vn -1.894605974e-23 1.718044388e-23 1
v 1.085572958 1.140509963 -7.554759173e-25
vn 4.953083443e-23 -2.671890819e-24 1
v 1.206435442 0.1736035049 -3.19656127e-25
vn 3.90131279e-24 -2.671890819e-24 1
v 0.6790319681 -0.05493799597 4.151785298e-25
vn 2.184131514e-25 3.945554082e-24 1
v 0.7207850218 0.6482669711 -1.504347688e-24
vn 2.280057493e-25 3.945554082e-24 1
v -1 0.1208629981 3.703404155e-25
vn -1.195734899e-25 -2.671890819e-24 1
v -0.9926750064 -0.2402620018 3.292187728e-25
vn 8.313505313e-25 3.945554082e-24 1
v 1.023736715 0.9571221471 2.969416414e-24
vn -2.033871557e-24 -2.671890819e-24 1
v 1.09510386 -0.9183024764 3.671546796e-24
vn -5.808804097e-24 1.056299898e-23 1
v -0.6966124773 -0.08570298553 -7.612196628e-25
vn -5.859967939e-25 3.945554082e-24 1
v 0.285676986 -2.107417107 -6.77360248e-25
vn -7.574922458e-24 -9.289335719e-24 1
v 0.8306609988 -0.02856800891 6.634879318e-25
vn 3.479238679e-24 -2.671890819e-24 1
v 0.8526359797 2.423858881 4.611011898e-24
vn -4.415160218e-24 3.945554082e-24 1
v -1.149299979 0.4167949855 4.103142162e-25
vn 1.134468461e-24 -2.671890819e-24 1
v 1.230607986 0.3406150043 6.496992348e-25
vn 2.115886073e-24 -2.671890819e-24 1
v 1.138313055 -0.006593007129 1.438246888e-26
vn 9.43171959e-25 -2.671890819e-24 1
v -0.9640417695 0.3306967616 1.979558311e-25
vn 5.853109779e-25 -2.671890819e-24 1
v 0.1835009903 2.511327744 1.639394956e-23
vn -2.038553249e-24 -2.671890819e-24 1
v 0.9018599987 -1.447283506 4.886933354e-24
vn -5.411880844e-24 -2.671890819e-24 1
v 0.8614259362 -1.744827032 -3.679183364e-24
vn 4.198262833e-23 -6.222889492e-23 1
v 0.4878479838 -2.059071064 -1.478436566e-23
vn 7.484675666e-23 -1.284033439e-22 1
v 0.931746006 0.2966639996 -3.375093558e-25
vn -1.030010793e-23 3.945554082e-24 1
v -0.1889860034 -2.177165031 -4.798683485e-24
vn 9.748971048e-24 3.945554082e-24 1
v -0.404343009 -2.111812115 -2.297262352e-24
vn 3.342764638e-23 2.379788878e-23 1
v -0.7691299915 -1.909641027 1.951676787e-24
vn -4.325363293e-25 1.718044388e-23 1
v -0.8235808015 -1.066767931 -9.362198068e-24
vn -3.815214144e-24 3.945554082e-24 1
v -1 -1.371194959 -9.911396719e-24
vn -1.18202776e-23 1.718044388e-23 1
v 0.5841724873 0.1494310051 -3.858885681e-25
vn 4.018675128e-25 -2.671890819e-24 1
v -1 -1.745528936 -4.741287543e-24
vn -9.633577263e-24 1.718044388e-23 1
v 1 2.300797939 3.050532615e-24
vn 5.018702708e-24 -9.289335719e-24 1
v 1.205054998 2.077054024 -7.558669556e-24
vn 6.664323433e-23 -2.671890819e-24 1
v -1.174675941 2.045886993 4.468508909e-24
vn 4.426524153e-24 -2.671890819e-24 1
v -0.6131065488 0.114271 3.759548125e-25
vn -4.514608559e-25 -2.671890819e-24 1
v -0.7295749784 0.6043170094 1.466946116e-24
vn 1.634051409e-25 3.945554082e-24 1
v 1.097379923 -1.323174119 1.01142097e-23
vn 1.416408275e-23 1.056299898e-23 1
v -0.7954999804 2.406279087 -3.232634647e-24
vn -2.498904193e-23 3.703277858e-23 1
v -0.4131320119 2.511327744 1.639394956e-23
vn -2.750610262e-24 -2.671890819e-24 1
v 1.05478096 -0.1702390015 -9.73497843e-25
vn 1.048923891e-24 -2.671890819e-24 1
# mm_gid 0
g mmGroup0
f 13//13 30//30 17//17 
f 17//17 29//29 13//13 
f 13//13 52//52 30//30 
f 44//44 22//22 16//16 
f 1//1 21//21 20//20 
f 8//8 1//1 20//20 
f 28//28 8//8 31//31 
f 44//44 27//27 32//32 
f 22//22 44//44 32//32 
f 51//51 12//12 32//32 
f 12//12 22//22 32//32 
f 2//2 12//12 51//51 
f 25//25 4//4 33//33 
f 4//4 34//34 33//33 
f 25//25 35//35 4//4 
f 37//37 25//25 40//40 
f 38//38 37//37 40//40 
f 39//39 38//38 40//40 
f 41//41 43//43 39//39 
f 40//40 41//41 39//39 
f 23//23 40//40 33//33 
f 49//49 23//23 33//33 
f 13//13 36//36 5//5 
f 26//26 18//18 3//3 
f 7//7 6//6 18//18 
f 6//6 3//3 18//18 
f 52//52 13//13 5//5 
f 3//3 52//52 26//26 
f 6//6 40//40 23//23 
f 7//7 40//40 6//6 
f 21//21 7//7 24//24 
f 9//9 20//20 21//21 
f 48//48 10//10 47//47 
f 19//19 12//12 48//48 
f 15//15 43//43 41//41 
f 12//12 14//14 48//48 
f 16//16 45//45 44//44 
f 47//47 24//24 18//18 
f 48//48 47//47 42//42 
f 20//20 31//31 8//8 
f 12//12 2//2 46//46 
f 42//42 47//47 18//18 
f 22//22 12//12 19//19 
f 24//24 9//9 21//21 
f 11//11 19//19 42//42 
f 19//19 48//48 42//42 
f 51//51 50//50 2//2 
f 18//18 24//24 7//7 
f 33//33 40//40 25//25 
f 5//5 26//26 52//52 
