# Blender 4.0.2
# www.blender.org
mtllib Bullet.mtl
o Plane
v -0.256117 1.618606 25.124561
v 0.393038 1.313221 25.124561
v 0.330504 1.423342 25.124561
v -0.344255 1.544274 25.124561
v 0.435859 1.218193 25.124561
v -1.020141 -0.971671 25.124561
v -0.846042 -0.512397 25.124561
v -0.786723 -0.398209 25.124561
v -0.753042 -0.286040 25.124561
v -0.736920 -0.198139 25.124561
v -0.728842 -0.111710 25.124561
v -0.725179 -0.027472 25.124561
v -0.727405 0.206929 25.124561
v -0.732505 0.441330 25.124561
v -0.723023 0.568800 25.124561
v -0.707620 0.688191 25.124561
v -0.679792 0.848624 25.124561
v -0.644673 0.995125 25.124561
v -0.599901 1.124750 25.124561
v -0.545681 1.253657 25.124561
v -0.481579 1.366500 25.124561
v -0.406796 1.479698 25.124561
v -0.304672 1.585146 25.124561
v -0.220007 1.643490 25.124561
v -0.128427 1.679689 25.124561
v 0.068583 1.665806 25.124561
v 0.185579 1.585247 25.124561
v 0.275847 1.499800 25.124561
v 0.362521 1.372855 25.124561
v 0.413762 1.272723 25.124561
v 0.452840 1.176288 25.124561
v 0.499312 1.029770 25.124561
v 0.522428 0.904035 25.124561
v 0.538339 0.783171 25.124561
v 0.541967 0.662308 25.124561
v 0.535748 0.549997 25.124561
v 0.523637 0.442592 25.124561
v 0.501731 0.332682 25.124561
v 0.478512 0.233811 25.124561
v 0.458751 0.115366 25.124561
v 0.464714 0.014860 25.124561
v 0.519992 -0.186409 25.124561
v 0.569649 -0.288364 25.124561
v 0.693759 -0.448627 25.124561
v 0.858926 -0.580383 25.124561
v 0.956048 -0.673712 25.124561
v 1.003791 -0.770964 25.124561
v 0.969192 -0.864814 25.124561
v 0.897578 -0.902219 25.124561
v 0.750167 -0.905361 25.124561
v 0.581821 -0.842969 25.124561
v 0.465167 -0.819314 25.124561
v 0.444785 -0.960559 25.124561
v 0.376903 -1.058797 25.124561
v 0.233692 -1.095059 25.124561
v 0.113095 -1.048226 25.124561
v 0.047429 -0.977382 25.124561
v -0.021975 -0.803927 25.124561
v -0.047527 -0.584346 25.124561
v -0.086708 -0.470808 25.124561
v -0.131937 -0.589797 25.124561
v -0.204933 -0.712364 25.124561
v -0.357311 -0.737320 25.124561
v -0.502192 -0.629570 25.124561
v -0.507131 -0.563391 25.124561
v -0.479364 -0.507263 25.124561
v -0.396319 -0.398835 25.124561
v -0.392828 -0.292366 25.124561
v -0.451684 -0.320986 25.124561
v -0.483539 -0.369279 25.124561
v -0.506450 -0.433756 25.124561
v -0.531065 -0.543888 25.124561
v -0.604316 -0.727014 25.124561
v -0.205888 -0.858289 25.124561
v -0.238984 -1.047775 25.124561
v -0.340614 -1.115497 25.124561
v -0.433216 -1.053397 25.124561
v -0.485609 -0.885256 25.124561
v -0.452376 -0.809495 25.124561
v -0.332339 -0.780121 25.124561
v 0.378262 -1.181849 25.124561
v 0.424340 -1.285506 25.124561
v 0.386949 -1.383542 25.124561
v 0.277159 -1.422211 25.124561
v 0.177507 -1.382860 25.124561
v 0.127082 -1.283718 25.124561
v 0.139858 -1.208678 25.124561
v 0.205700 -1.144880 25.124561
v 0.307652 -1.141731 25.124561
v 0.355265 -1.503469 25.124561
v 0.389930 -1.568542 25.124561
v 0.354839 -1.637618 25.124561
v 0.192241 -1.634211 25.124561
v 0.161663 -1.540520 25.124561
v 0.206210 -1.487627 25.124561
v 0.294620 -1.474339 25.124561
v -0.174722 1.663876 25.124561
v -0.626261 1.048431 25.124561
v 0.469125 1.124944 25.124561
v -0.027956 1.689164 25.124561
v -0.569308 1.197485 25.124561
v 0.510979 0.966313 25.124561
v 0.129838 1.628601 25.124561
v -0.507230 1.321345 25.124561
v 0.237116 1.548401 25.124561
v -0.448991 1.415828 25.124561
v -0.053220 0.934749 25.124561
v -0.075138 1.687659 25.124561
v -0.157470 1.560344 25.124561
v 0.632151 -0.372445 25.124561
v 0.486399 -0.092362 25.124561
v 0.118107 -0.181046 25.124561
v -0.489500 -0.527752 25.124561
v -0.048974 -0.537350 25.124561
v 0.418106 -1.015484 25.124561
v 0.984386 -0.823601 25.124561
v -0.437808 -0.453005 25.124561
v -0.123349 -0.504387 25.124561
v 0.301966 -1.088185 25.124561
v 0.932662 -0.883894 25.124561
v -0.158798 -0.634898 25.124561
v 0.178316 -1.082406 25.124561
v 0.812425 -0.904034 25.124561
v -0.281723 -0.724940 25.124561
v 0.083233 -1.022180 25.124561
v -0.435307 -0.679313 25.124561
v -0.007944 -0.859937 25.124561
v 0.517230 -0.818945 25.124561
v -0.504765 -0.595088 25.124561
v -0.034181 -0.699039 25.124561
v 0.437046 -0.853347 25.124561
v 0.977254 -0.716909 25.124561
v 0.715693 -0.727116 25.124561
v 0.125467 -0.811013 25.124561
v 0.104860 -0.435682 25.124561
v -0.202764 -0.431267 25.124561
v -0.360078 -0.342230 25.124561
v -0.361427 -0.308964 25.124561
v -0.418971 -0.292445 25.124561
v -0.370778 -0.365386 25.124561
v -0.273414 -0.232562 25.124561
v -0.483894 -0.216371 25.124561
v -0.070008 -0.474539 25.124561
v -0.108933 -0.474004 25.124561
v 0.380118 -1.611108 25.124561
v 0.143316 -1.331851 25.124561
v -0.397627 -0.781550 25.124561
v 0.276895 -1.660538 25.124561
v 0.133973 -1.239126 25.124561
v -0.247066 -0.806055 25.124561
v -0.208648 -0.950761 25.124561
v 0.159963 -1.585611 25.124561
v 0.166596 -1.174292 25.124561
v 0.409807 -1.234926 25.124561
v -0.278713 -1.098748 25.124561
v 0.185928 -1.508832 25.124561
v 0.257630 -1.136092 25.124561
v 0.409208 -1.344328 25.124561
v -0.392662 -1.099047 25.124561
v 0.248649 -1.476852 25.124561
v 0.343920 -1.157250 25.124561
v 0.339011 -1.411368 25.124561
v -0.478098 -0.964652 25.124561
v 0.323397 -1.487139 25.124561
v 0.379329 -1.533167 25.124561
v 0.219958 -1.407370 25.124561
v -0.476480 -0.841230 25.124561
v 0.274351 -1.570019 25.124561
v -0.344774 -0.929128 25.124561
v 0.280483 -1.272490 25.124561
v 0.230812 -1.652589 25.124561
v 0.322738 -1.654513 25.124561
v -0.417220 -1.075733 25.124561
v -0.254303 -1.070249 25.124561
v -0.427547 -0.791880 25.124561
v -0.201344 -0.906644 25.124561
v -0.310540 -1.112879 25.124561
v -0.290821 -0.787611 25.124561
v -0.265211 -0.798231 25.124561
v -0.457843 -1.005738 25.124561
v -0.219484 -0.992872 25.124561
v -0.487023 -0.919747 25.124561
v -0.220312 -0.829937 25.124561
v -0.361382 -1.110981 25.124561
v -0.974564 -0.687280 25.124561
v -0.911653 -0.612622 25.124561
v -0.944674 -0.648748 25.124561
v 0.488054 -0.815528 25.124561
v 0.447959 -0.831885 25.124561
v 0.281131 -0.742406 25.124561
v 0.443038 -0.764484 25.124561
v 0.434791 -0.986747 25.124561
v 0.149429 -1.069417 25.124561
v 0.264917 -1.095780 25.124561
v 0.155364 -0.980169 25.124561
v 0.338198 -1.076491 25.124561
v 0.400226 -1.039647 25.124561
v 0.446469 -0.903163 25.124561
v 0.308969 -0.935828 25.124561
v 0.011646 -0.918925 25.124561
v 0.448139 -0.935705 25.124561
v -1.018721 -0.971671 25.124561
v -0.974564 -0.687280 25.124561
v -0.974564 -0.687280 25.124561
v -0.974564 -0.687280 25.124561
v -0.614265 -0.743638 25.124561
v -1.102571 -0.885073 25.124561
v -1.101824 -0.858949 25.124561
v -0.760336 -0.926835 25.124561
v -1.082783 -0.932834 25.124561
v -1.090590 -0.827781 25.124561
v -1.026707 -0.743312 25.124561
v -0.649792 -0.805776 25.124561
v -0.701608 -0.872499 25.124561
v -0.862028 -0.981812 25.124561
v -0.960693 -0.986781 25.124561
vn -0.0000 -0.0000 -1.0000
vn -0.0000 -0.0000 1.0000
vt 0.480440 0.763957
vt 0.256442 0.856824
vt 0.246602 0.840528
vt 0.372575 0.944083
vt 0.354445 0.933614
vt 0.283862 0.889027
vt 0.272890 0.876140
vt 0.544969 0.375274
vt 0.549907 0.268138
vt 0.624624 0.285073
vt 0.565177 0.048214
vt 0.573517 0.073310
vt 0.561293 0.064226
vt 0.325799 0.917074
vt 0.302137 0.901249
vt 0.233860 0.819428
vt 0.227212 0.796798
vt 0.461167 0.356052
vt 0.421100 0.374055
vt 0.457006 0.345631
vt 0.354833 0.273023
vt 0.346976 0.234795
vt 0.371656 0.269802
vt 0.666136 0.169144
vt 0.620851 0.136934
vt 0.683037 0.149093
vt 0.434334 0.940162
vt 0.426703 0.969323
vt 0.408061 0.963820
vt 0.446772 0.975246
vt 0.529033 0.974208
vt 0.488486 0.974720
vt 0.580648 0.950315
vt 0.555241 0.962076
vt 0.627425 0.925385
vt 0.604173 0.937777
vt 0.666136 0.887988
vt 0.650740 0.902861
vt 0.691943 0.860979
vt 0.681506 0.871903
vt 0.708073 0.832932
vt 0.701064 0.845120
vt 0.720977 0.792419
vt 0.712595 0.818735
vt 0.468897 0.974967
vt 0.554213 0.447186
vt 0.758075 0.420531
vt 0.737106 0.448579
vt 0.932628 0.297500
vt 0.937942 0.264437
vt 0.945180 0.281333
vt 0.914998 0.242730
vt 0.932276 0.251208
vt 0.813097 0.291625
vt 0.898404 0.234588
vt 0.750010 0.256402
vt 0.822594 0.237704
vt 0.702000 0.247388
vt 0.698081 0.238554
vt 0.682917 0.213672
vt 0.633719 0.233819
vt 0.676429 0.204718
vt 0.635401 0.191736
vt 0.562531 0.218128
vt 0.616988 0.188913
vt 0.569525 0.190421
vt 0.552791 0.192217
vt 0.509678 0.221083
vt 0.525423 0.204605
vt 0.490322 0.271984
vt 0.496389 0.256030
vt 0.468547 0.344311
vt 0.466614 0.353959
vt 0.449998 0.328079
vt 0.443469 0.316994
vt 0.397303 0.292196
vt 0.432255 0.297954
vt 0.362898 0.286527
vt 0.318612 0.292679
vt 0.272232 0.312568
vt 0.280636 0.297954
vt 0.278845 0.345130
vt 0.264506 0.326001
vt 0.304038 0.372241
vt 0.287088 0.356126
vt 0.320960 0.388329
vt 0.379488 0.432370
vt 0.326891 0.397357
vt 0.331627 0.404566
vt 0.620008 0.053011
vt 0.582262 0.079808
vt 0.630651 0.079808
vt 0.606608 0.079808
vt 0.656458 0.073575
vt 0.642897 0.076850
vt 0.669834 0.063441
vt 0.670649 0.039486
vt 0.683879 0.052799
vt 0.658071 0.026829
vt 0.616102 0.028795
vt 0.592914 0.029881
vt 0.387403 0.266787
vt 0.403335 0.263737
vt 0.408295 0.231064
vt 0.405452 0.217100
vt 0.379455 0.191542
vt 0.363854 0.186832
vt 0.322660 0.190276
vt 0.311082 0.193508
vt 0.291783 0.223564
vt 0.286220 0.239087
vt 0.282249 0.276139
vt 0.282249 0.263639
vt 0.684857 0.115653
vt 0.696782 0.132786
vt 0.675814 0.102661
vt 0.619359 0.092273
vt 0.650113 0.097932
vt 0.551615 0.098506
vt 0.583253 0.095595
vt 0.547763 0.120831
vt 0.550837 0.149909
vt 0.545163 0.135902
vt 0.572767 0.165316
vt 0.554841 0.159795
vt 0.591941 0.171222
vt 0.635490 0.178493
vt 0.616018 0.175242
vt 0.569358 0.030984
vt 0.640236 0.027665
vt 0.349994 0.182648
vt 0.339088 0.185692
vt 0.301605 0.196152
vt 0.296034 0.211698
vt 0.380609 0.268088
vt 0.411319 0.245912
vt 0.414513 0.261596
vt 0.282249 0.250170
vt 0.401609 0.198230
vt 0.393036 0.195642
vt 0.299181 0.275412
vt 0.316628 0.274663
vt 0.000000 0.000000
vt 0.699404 0.277947
vt 0.706277 0.257028
vt 0.709686 0.264713
vt 0.670975 0.197191
vt 0.648521 0.193748
vt 0.603230 0.186803
vt 0.535485 0.194075
vt 0.695851 0.233528
vt 0.688438 0.221292
vt 0.693556 0.228355
vt 0.502666 0.239522
vt 0.648125 0.174638
vt 0.068782 0.308040
vt 0.054348 0.243395
vt 0.032889 0.147292
vt 0.090272 0.325287
vt 0.168738 0.291017
vt 0.392926 0.955402
vt 0.922598 0.310419
vt 0.879048 0.336389
vt 0.811303 0.378980
vt 0.785512 0.399113
vt 0.729506 0.260628
vt 0.720179 0.262550
vt 0.470967 0.332234
vt 0.481076 0.300764
vt 0.729931 0.774070
vt 0.722562 0.474708
vt 0.854612 0.236388
vt 0.464515 0.364437
vt 0.335285 0.410134
vt 0.023486 0.105180
vt 0.021288 0.095337
vt 0.007714 0.034546
s 0
f 107/1/1 101/3/1 20/2/1
f 107/1/1 4/5/1 23/4/1
f 107/1/1 104/7/1 21/6/1
f 135/8/1 190/10/1 134/9/1
f 152/11/1 94/13/1 156/12/1
f 107/1/1 106/15/1 22/14/1
f 107/1/1 98/17/1 19/16/1
f 144/18/1 118/20/1 136/19/1
f 80/21/1 178/23/1 169/22/1
f 81/24/1 154/26/1 170/25/1
f 109/27/1 24/29/1 97/28/1
f 109/27/1 97/28/1 25/30/1
f 107/1/1 100/32/1 26/31/1
f 107/1/1 103/34/1 27/33/1
f 107/1/1 105/36/1 28/35/1
f 107/1/1 3/38/1 29/37/1
f 107/1/1 2/40/1 30/39/1
f 107/1/1 5/42/1 31/41/1
f 107/1/1 99/44/1 32/43/1
f 109/27/1 108/45/1 100/32/1
f 112/46/1 42/48/1 43/47/1
f 132/49/1 47/51/1 116/50/1
f 116/50/1 48/53/1 120/52/1
f 133/54/1 120/52/1 49/55/1
f 133/54/1 50/57/1 51/56/1
f 131/58/1 198/59/1 134/9/1
f 115/60/1 197/62/1 199/61/1
f 119/63/1 194/65/1 195/64/1
f 122/66/1 193/67/1 195/64/1
f 134/9/1 125/69/1 57/68/1
f 134/9/1 127/71/1 58/70/1
f 114/72/1 143/73/1 135/8/1
f 136/19/1 118/20/1 61/74/1
f 121/75/1 62/77/1 124/76/1
f 136/19/1 124/76/1 63/78/1
f 126/79/1 64/81/1 129/80/1
f 129/80/1 65/83/1 113/82/1
f 113/82/1 66/85/1 117/84/1
f 136/19/1 117/84/1 67/86/1
f 136/19/1 141/87/1 144/18/1
f 140/88/1 137/89/1 136/19/1
f 168/90/1 156/12/1 95/91/1
f 168/90/1 160/93/1 96/92/1
f 168/90/1 164/95/1 90/94/1
f 165/96/1 91/98/1 145/97/1
f 168/90/1 145/97/1 92/99/1
f 148/100/1 171/101/1 168/90/1
f 150/102/1 183/103/1 169/22/1
f 151/104/1 181/105/1 169/22/1
f 155/106/1 177/107/1 169/22/1
f 159/108/1 173/109/1 169/22/1
f 163/110/1 182/111/1 169/22/1
f 169/22/1 167/113/1 79/112/1
f 154/26/1 82/115/1 158/114/1
f 170/25/1 158/114/1 83/116/1
f 170/25/1 162/118/1 84/117/1
f 170/25/1 166/120/1 85/119/1
f 146/121/1 86/123/1 149/122/1
f 149/122/1 87/125/1 153/124/1
f 170/25/1 153/124/1 88/126/1
f 170/25/1 157/128/1 89/127/1
f 168/90/1 171/101/1 93/129/1
f 172/130/1 148/100/1 168/90/1
f 169/22/1 177/107/1 76/131/1
f 184/132/1 159/108/1 169/22/1
f 169/22/1 173/109/1 77/133/1
f 180/134/1 163/110/1 169/22/1
f 178/23/1 179/135/1 169/22/1
f 179/135/1 150/102/1 169/22/1
f 183/103/1 74/137/1 176/136/1
f 176/136/1 151/104/1 169/22/1
f 169/22/1 182/111/1 78/138/1
f 169/22/1 181/105/1 75/139/1
f 174/140/1 155/106/1 169/22/1
f 175/141/1 147/142/1 169/22/1
f 73/143/1 8/143/1 72/143/1
f 191/144/1 52/146/1 189/145/1
f 199/61/1 197/62/1 54/147/1
f 199/61/1 196/148/1 119/63/1
f 195/64/1 194/65/1 55/149/1
f 195/64/1 56/150/1 125/69/1
f 198/59/1 201/151/1 199/61/1
f 192/152/1 115/60/1 199/61/1
f 201/151/1 53/153/1 192/152/1
f 200/154/1 127/71/1 134/9/1
f 14/143/1 107/1/1 141/87/1
f 163/110/2 79/112/2 78/138/2
f 161/155/2 162/118/2 81/24/2
f 95/91/2 171/101/2 160/93/2
f 69/143/1 12/143/1 139/143/1
f 6/143/2 202/143/2 203/156/2
f 206/143/1 214/143/1 6/143/1
f 203/156/1 205/156/1 204/156/1
f 212/157/1 202/143/1 211/158/1
f 209/143/2 186/159/2 215/143/2
f 187/160/1 205/143/1 212/157/1
f 107/1/1 20/2/1 104/7/1
f 107/1/1 23/4/1 1/161/1
f 107/1/1 21/6/1 106/15/1
f 132/49/1 133/54/1 46/162/1
f 46/162/1 133/54/1 45/163/1
f 44/164/1 128/166/1 110/165/1
f 110/165/1 135/8/1 112/46/1
f 45/163/1 133/54/1 44/164/1
f 188/167/1 191/144/1 128/166/1
f 128/166/1 44/164/1 133/54/1
f 191/144/1 110/165/1 128/166/1
f 110/165/1 190/10/1 135/8/1
f 135/8/1 59/168/1 114/72/1
f 59/168/1 135/8/1 130/169/1
f 130/169/1 135/8/1 134/9/1
f 134/9/1 190/10/1 131/58/1
f 131/58/1 190/10/1 189/145/1
f 110/165/1 191/144/1 190/10/1
f 152/11/1 156/12/1 168/90/1
f 107/1/1 22/14/1 4/5/1
f 107/1/1 19/16/1 101/3/1
f 80/21/1 169/22/1 147/142/1
f 81/24/1 170/25/1 161/155/1
f 24/29/1 109/27/1 1/161/1
f 1/161/1 109/27/1 107/1/1
f 109/27/1 25/30/1 108/45/1
f 107/1/1 26/31/1 103/34/1
f 107/1/1 27/33/1 105/36/1
f 107/1/1 28/35/1 3/38/1
f 107/1/1 29/37/1 2/40/1
f 107/1/1 30/39/1 5/42/1
f 107/1/1 31/41/1 99/44/1
f 107/1/1 32/43/1 102/170/1
f 109/27/1 100/32/1 107/1/1
f 42/48/1 112/46/1 111/171/1
f 112/46/1 43/47/1 110/165/1
f 132/49/1 116/50/1 133/54/1
f 116/50/1 120/52/1 133/54/1
f 133/54/1 49/55/1 123/172/1
f 50/57/1 133/54/1 123/172/1
f 133/54/1 51/56/1 128/166/1
f 119/63/1 195/64/1 134/9/1
f 134/9/1 57/68/1 200/154/1
f 134/9/1 58/70/1 130/169/1
f 136/19/1 61/74/1 121/75/1
f 121/75/1 124/76/1 136/19/1
f 136/19/1 63/78/1 126/79/1
f 126/79/1 129/80/1 136/19/1
f 129/80/1 113/82/1 136/19/1
f 113/82/1 117/84/1 136/19/1
f 136/19/1 67/86/1 140/88/1
f 60/173/1 112/46/1 143/73/1
f 143/73/1 112/46/1 135/8/1
f 112/46/1 60/173/1 141/87/1
f 60/173/1 144/18/1 141/87/1
f 141/87/1 137/89/1 138/174/1
f 137/89/1 141/87/1 136/19/1
f 168/90/1 95/91/1 160/93/1
f 168/90/1 96/92/1 164/95/1
f 168/90/1 90/94/1 165/96/1
f 165/96/1 145/97/1 168/90/1
f 168/90/1 92/99/1 172/130/1
f 169/22/1 79/112/1 175/141/1
f 154/26/1 158/114/1 170/25/1
f 170/25/1 83/116/1 162/118/1
f 170/25/1 84/117/1 166/120/1
f 170/25/1 85/119/1 146/121/1
f 146/121/1 149/122/1 170/25/1
f 149/122/1 153/124/1 170/25/1
f 170/25/1 88/126/1 157/128/1
f 170/25/1 89/127/1 161/155/1
f 168/90/1 93/129/1 152/11/1
f 169/22/1 76/131/1 184/132/1
f 169/22/1 77/133/1 180/134/1
f 183/103/1 176/136/1 169/22/1
f 169/22/1 78/138/1 167/113/1
f 169/22/1 75/139/1 174/140/1
f 142/143/1 70/143/1 10/143/1
f 10/143/1 71/143/1 9/143/1
f 70/143/1 71/143/1 10/143/1
f 9/143/1 72/143/1 8/143/1
f 71/143/1 72/143/1 9/143/1
f 69/143/1 142/143/1 139/143/1
f 70/143/1 142/143/1 69/143/1
f 8/143/1 73/143/1 7/143/1
f 7/143/1 73/143/1 186/159/1
f 52/146/1 191/144/1 188/167/1
f 191/144/1 189/145/1 190/10/1
f 199/61/1 54/147/1 196/148/1
f 199/61/1 119/63/1 134/9/1
f 195/64/1 55/149/1 122/66/1
f 56/150/1 195/64/1 193/67/1
f 195/64/1 125/69/1 134/9/1
f 198/59/1 199/61/1 134/9/1
f 201/151/1 192/152/1 199/61/1
f 68/143/1 141/87/1 138/174/1
f 141/87/1 107/1/1 112/46/1
f 112/46/1 41/143/1 111/171/1
f 112/46/1 40/143/1 41/143/1
f 139/143/1 142/143/1 68/143/1
f 68/143/1 142/143/1 141/87/1
f 11/143/1 142/143/1 10/143/1
f 112/46/1 39/143/1 40/143/1
f 39/143/1 107/1/1 38/143/1
f 38/143/1 107/1/1 37/143/1
f 112/46/1 107/1/1 39/143/1
f 11/143/1 12/143/1 142/143/1
f 142/143/1 13/143/1 141/87/1
f 12/143/1 13/143/1 142/143/1
f 37/143/1 107/1/1 36/143/1
f 36/143/1 107/1/1 35/143/1
f 35/143/1 107/1/1 34/143/1
f 34/143/1 107/1/1 33/143/1
f 33/143/1 107/1/1 102/170/1
f 107/1/1 18/143/1 98/17/1
f 18/143/1 107/1/1 17/143/1
f 17/143/1 107/1/1 16/143/1
f 16/143/1 107/1/1 15/143/1
f 15/143/1 107/1/1 14/143/1
f 14/143/1 141/87/1 13/143/1
f 176/136/2 150/102/2 151/104/2
f 151/104/2 179/135/2 181/105/2
f 181/105/2 174/140/2 75/139/2
f 151/104/2 150/102/2 179/135/2
f 174/140/2 177/107/2 155/106/2
f 80/21/2 76/131/2 177/107/2
f 174/140/2 80/21/2 177/107/2
f 76/131/2 80/21/2 184/132/2
f 184/132/2 173/109/2 159/108/2
f 80/21/2 173/109/2 184/132/2
f 173/109/2 80/21/2 77/133/2
f 77/133/2 147/142/2 180/134/2
f 180/134/2 175/141/2 163/110/2
f 147/142/2 175/141/2 180/134/2
f 163/110/2 78/138/2 182/111/2
f 78/138/2 79/112/2 167/113/2
f 79/112/2 163/110/2 175/141/2
f 147/142/2 77/133/2 80/21/2
f 80/21/2 174/140/2 178/23/2
f 174/140/2 181/105/2 178/23/2
f 178/23/2 181/105/2 179/135/2
f 150/102/2 176/136/2 183/103/2
f 81/24/2 83/116/2 154/26/2
f 83/116/2 158/114/2 154/26/2
f 83/116/2 81/24/2 162/118/2
f 162/118/2 89/127/2 84/117/2
f 84/117/2 157/128/2 166/120/2
f 166/120/2 88/126/2 85/119/2
f 84/117/2 89/127/2 157/128/2
f 85/119/2 153/124/2 146/121/2
f 146/121/2 153/124/2 149/122/2
f 153/124/2 85/119/2 88/126/2
f 88/126/2 166/120/2 157/128/2
f 89/127/2 162/118/2 161/155/2
f 160/93/2 148/100/2 96/92/2
f 96/92/2 148/100/2 164/95/2
f 148/100/2 172/130/2 164/95/2
f 164/95/2 92/99/2 90/94/2
f 90/94/2 92/99/2 165/96/2
f 164/95/2 172/130/2 92/99/2
f 145/97/2 165/96/2 92/99/2
f 148/100/2 160/93/2 171/101/2
f 171/101/2 95/91/2 93/129/2
f 93/129/2 156/12/2 152/11/2
f 156/12/2 93/129/2 95/91/2
f 123/172/1 45/163/1 49/55/1
f 49/55/1 46/162/1 120/52/1
f 45/163/1 46/162/1 49/55/1
f 132/49/1 120/52/1 46/162/1
f 45/163/1 50/57/1 44/164/1
f 120/52/1 132/49/1 116/50/1
f 50/57/1 45/163/1 123/172/1
f 128/166/1 44/164/1 51/56/1
f 51/56/1 44/164/1 50/57/1
f 128/166/1 188/167/1 110/165/1
f 110/165/1 188/167/1 43/47/1
f 188/167/1 52/146/1 43/47/1
f 43/47/1 189/145/1 42/48/1
f 52/146/1 189/145/1 43/47/1
f 42/48/1 114/72/1 111/171/1
f 189/145/1 114/72/1 42/48/1
f 111/171/1 143/73/1 41/143/1
f 114/72/1 143/73/1 111/171/1
f 201/151/1 192/152/1 198/59/1
f 198/59/1 115/60/1 131/58/1
f 192/152/1 115/60/1 198/59/1
f 131/58/1 130/169/1 189/145/1
f 189/145/1 59/168/1 114/72/1
f 41/143/1 143/73/1 40/143/1
f 54/147/1 131/58/1 197/62/1
f 197/62/1 131/58/1 115/60/1
f 119/63/1 131/58/1 196/148/1
f 196/148/1 131/58/1 54/147/1
f 55/149/1 131/58/1 194/65/1
f 194/65/1 131/58/1 119/63/1
f 193/67/1 131/58/1 122/66/1
f 122/66/1 131/58/1 55/149/1
f 125/69/1 193/67/1 56/150/1
f 200/154/1 127/71/1 57/68/1
f 57/68/1 131/58/1 125/69/1
f 127/71/1 58/70/1 131/58/1
f 59/168/1 189/145/1 130/169/1
f 130/169/1 131/58/1 58/70/1
f 127/71/1 131/58/1 57/68/1
f 125/69/1 131/58/1 193/67/1
f 39/143/1 98/17/1 38/143/1
f 38/143/1 36/143/1 37/143/1
f 101/3/1 33/143/1 36/143/1
f 36/143/1 38/143/1 101/3/1
f 40/143/1 138/174/1 39/143/1
f 143/73/1 60/173/1 40/143/1
f 60/173/1 138/174/1 40/143/1
f 36/143/1 33/143/1 35/143/1
f 35/143/1 33/143/1 34/143/1
f 33/143/1 101/3/1 102/170/1
f 102/170/1 99/44/1 32/43/1
f 99/44/1 5/42/1 31/41/1
f 102/170/1 104/7/1 99/44/1
f 144/18/1 138/174/1 60/173/1
f 102/170/1 101/3/1 104/7/1
f 99/44/1 104/7/1 5/42/1
f 5/42/1 2/40/1 30/39/1
f 2/40/1 3/38/1 29/37/1
f 5/42/1 106/15/1 2/40/1
f 104/7/1 106/15/1 5/42/1
f 138/174/1 17/143/1 39/143/1
f 121/75/1 118/20/1 61/74/1
f 118/20/1 137/89/1 144/18/1
f 2/40/1 106/15/1 3/38/1
f 3/38/1 27/33/1 28/35/1
f 28/35/1 27/33/1 105/36/1
f 27/33/1 1/161/1 103/34/1
f 103/34/1 100/32/1 26/31/1
f 97/28/1 108/45/1 103/34/1
f 144/18/1 137/89/1 138/174/1
f 38/143/1 19/16/1 101/3/1
f 121/75/1 140/88/1 118/20/1
f 140/88/1 137/89/1 118/20/1
f 63/78/1 67/86/1 124/76/1
f 67/86/1 140/88/1 124/76/1
f 126/79/1 117/84/1 63/78/1
f 3/38/1 4/5/1 27/33/1
f 103/34/1 1/161/1 97/28/1
f 100/32/1 103/34/1 108/45/1
f 108/45/1 97/28/1 25/30/1
f 97/28/1 1/161/1 24/29/1
f 1/161/1 4/5/1 23/4/1
f 4/5/1 106/15/1 22/14/1
f 106/15/1 104/7/1 21/6/1
f 104/7/1 101/3/1 20/2/1
f 19/16/1 38/143/1 98/17/1
f 98/17/1 17/143/1 18/143/1
f 17/143/1 138/174/1 16/143/1
f 16/143/1 138/174/1 15/143/1
f 138/174/1 68/143/1 15/143/1
f 15/143/1 68/143/1 14/143/1
f 14/143/1 68/143/1 13/143/1
f 13/143/1 139/143/1 12/143/1
f 68/143/1 139/143/1 13/143/1
f 98/17/1 39/143/1 17/143/1
f 4/5/1 3/38/1 106/15/1
f 1/161/1 27/33/1 4/5/1
f 129/80/1 113/82/1 126/79/1
f 63/78/1 117/84/1 67/86/1
f 113/82/1 66/85/1 126/79/1
f 117/84/1 126/79/1 66/85/1
f 140/88/1 121/75/1 124/76/1
f 12/143/1 69/143/1 11/143/1
f 11/143/1 70/143/1 10/143/1
f 186/159/1 6/143/1 187/160/1
f 187/160/1 6/143/1 185/156/1
f 6/143/1 186/159/1 73/143/1
f 70/143/1 11/143/1 69/143/1
f 6/143/1 203/156/1 185/156/1
f 206/143/1 6/143/1 73/143/1
f 6/143/1 209/143/1 216/143/1
f 216/143/1 209/143/1 215/143/1
f 209/143/1 6/143/1 214/143/1
f 214/143/1 206/143/1 213/143/1
f 203/156/1 204/156/1 185/156/1
f 208/175/1 211/158/1 207/176/1
f 207/176/1 211/158/1 210/177/1
f 210/177/1 211/158/1 202/143/1
f 202/143/1 212/157/1 203/156/1
f 187/160/2 215/143/2 186/159/2
f 186/159/2 206/143/2 73/143/2
f 206/143/2 186/159/2 213/143/2
f 213/143/2 186/159/2 214/143/2
f 186/159/2 209/143/2 214/143/2
f 212/157/2 216/143/2 187/160/2
f 202/143/2 216/143/2 212/157/2
f 215/143/2 187/160/2 216/143/2
f 187/160/1 215/143/1 205/143/1
f 205/143/1 216/143/1 212/157/1
f 216/143/1 205/143/1 215/143/1
