v 0.3319019973 1.413910985 -9.140024466e-25
vn 2.338859935e-23 1.098246725e-22 1
v 0.3093340099 1.323475003 2.240793717e-24
vn -3.732569526e-23 -1.590678062e-23 1
v 0.2588300109 1.132326007 2.779492432e-24
vn -6.836291324e-23 -4.237656022e-23 1
v -0.3386279941 1.000954986 -1.58902106e-24
vn 1.793097561e-23 1.718044388e-23 1
v -0.308600992 1.047760963 7.211383305e-25
vn -8.373701711e-24 -4.237656022e-23 1
v -0.2750419974 1.099866033 4.447585951e-25
vn -4.985232971e-33 -4.237656022e-23 1
v 0.293828994 1.474611044 -5.159380569e-25
vn 6.799577737e-23 5.026766838e-23 1
v 0.1842070222 1.573781967 -2.97557939e-24
vn -6.603849987e-23 -6.884633982e-23 1
v 0.1617199779 1.59524703 -8.727546848e-24
vn -5.122337653e-22 -1.590678062e-23 1
v 0.4672046602 0.8534297347 2.820931887e-24
vn 1.171406281e-24 2.671890819e-24 -1
v 0.398883611 1.020517111 6.463924778e-25
vn 1.765692376e-24 -1.056299898e-23 -1
v 0.201402992 1.162603974 1.668609236e-24
vn -4.92463775e-23 -7.546378472e-23 1
v 0.131825 1.30173099 2.495189131e-24
vn -1.135377445e-23 2.379788878e-23 1
v 0.1998160034 1.237591982 -3.304414086e-24
vn 6.089296213e-24 4.365022348e-23 1
v 0.2269069999 1.137799025 -2.255804162e-24
vn 3.048721587e-24 -8.869867452e-23 1
v 0.1439750046 1.192881942 5.577259419e-25
vn 4.248377588e-23 3.703277858e-23 1
v 0.1694800109 1.168076992 3.250757543e-24
vn 1.662586457e-22 1.495293419e-22 1
v 0.140801996 1.34285903 -2.291600303e-24
vn 1.503194176e-23 1.718044388e-23 1
v 0.3983460069 1.213475943 1.998882026e-24
vn -4.574426422e-22 -3.589326913e-21 1
v 0.3845469952 1.190477967 3.099219335e-24
vn -1.377197944e-23 -2.252422552e-23 1
v 0.4233880043 1.288604021 2.98199559e-24
vn 9.477427927e-23 1.759991215e-22 1
v 0.2939479947 1.138494015 -1.341276235e-24
vn 1.689851004e-22 -1.614905684e-22 1
v 0.365215987 1.399739981 -2.858910215e-24
vn 3.711081586e-23 8.997233779e-23 1
v 0.1228470057 1.260602951 6.645335176e-25
vn 4.739635037e-23 2.252422552e-23 -1
v 0.2858699858 1.405107975 -2.605646816e-24
vn -4.321284587e-24 7.673744799e-23 1
v 0.2065230012 1.410475969 -2.352383417e-24
vn -4.882534982e-23 1.718044388e-23 1
v 0.2674959898 1.248538971 1.021176793e-24
vn -9.306060359e-24 -2.379788878e-23 -1
v 0.2626749873 1.266669035 -2.665275234e-24
vn -6.839547899e-24 3.703277858e-23 1
v 0.2985889912 1.428081036 -1.303887852e-25
vn 1.775220238e-24 -2.14430115e-22 1
v 0.1736630052 1.376667976 -1.741344776e-24
vn 1.775551559e-23 3.945554082e-24 1
v 0.3886809945 1.318107009 1.987530318e-24
vn 9.446306417e-24 1.718044388e-23 1
v 0.35680601 1.167569995 -1.181412686e-24
vn 3.473049371e-22 -5.4530236e-22 1
v 0.4121449888 1.236474991 1.37782002e-24
vn 2.06632352e-24 -1.21785899e-22 1
v 0.1908379942 1.196463943 1.482375348e-24
vn 2.660289199e-23 -5.688511329e-23 -1
v 0.194983989 1.143272042 -6.736558558e-25
vn 1.507609494e-22 6.350255819e-23 1
v 0.3290649951 1.144662023 1.155400096e-24
vn 1.398984357e-22 3.703277858e-23 1
v -0.2458990067 1.047760963 7.211383305e-25
vn -1.982027841e-33 -4.899400512e-23 1
v -0.4304740131 1.053060055 -1.865400844e-24
vn -1.271779069e-23 1.056299898e-23 1
v -0.2167560011 0.9956560731 -3.334232634e-24
vn -6.903591572e-24 1.056299898e-23 1
v -0.3053070009 1.109907985 1.198051636e-24
vn 0 -4.237656022e-23 1
v -0.4066340029 0.8910840154 -1.237960651e-25
vn -2.6365336e-23 -2.252422552e-23 1
v -0.474630028 0.9673960805 -6.614424746e-24
vn -1.176853117e-22 -2.252422552e-23 1
v -0.4869939983 0.8914470077 4.31524704e-24
vn 8.90573538e-23 8.335489289e-23 1
v -0.4207639992 0.8522269726 -4.710088883e-24
vn 4.189352491e-23 6.350255819e-23 1
v -0.4605000019 1.006253958 3.123903581e-24
vn -3.172062711e-23 1.056299898e-23 1
v -0.4719810188 0.8331600428 -4.47663812e-24
vn -1.665659102e-22 -2.078126827e-22 1
v -0.4887600243 0.9285380244 1.213887722e-24
vn 1.513691548e-22 1.164421174e-22 1
v -0.4332570136 0.7943130136 -1.780647157e-25
vn 3.228088638e-24 8.335489289e-23 1
v -0.2847619951 0.8857859969 -3.675426414e-24
vn -3.628331024e-24 1.056299898e-23 1
v -0.4587340057 0.8119649887 1.676033404e-24
vn 4.581981501e-23 9.658978269e-23 1
v -0.3024249971 0.7877579927 4.581559776e-24
vn -3.552526855e-23 4.365022348e-23 1
v -0.418998003 0.8151350021 3.847420968e-24
vn 1.694805335e-23 -2.252422552e-23 1
v -0.3527680039 0.7759150267 -2.210201494e-24
vn -4.063571223e-24 3.945554082e-24 1
v -0.2308859974 0.8199130297 4.515041447e-24
vn -4.772541266e-23 4.365022348e-23 1
v -0.4057509899 0.7939400077 -2.670840204e-25
vn -6.099903553e-23 -9.531611942e-23 1
v -0.4852280021 0.8543549776 3.287598925e-24
vn -1.285792915e-22 -1.482556786e-22 1
v -0.2061579973 0.9497330189 2.019670483e-24
vn -1.009484538e-22 5.026766838e-23 1
v -0.2026260048 0.87201792 1.95296756e-24
vn 1.223178311e-22 -5.561145002e-23 1
v -0.1955610067 0.9038109779 4.885135935e-24
vn -3.742783697e-23 -1.590678062e-23 1
v -0.368009001 1.109907985 1.198051636e-24
vn 0 -4.237656022e-23 1
v -0.2238209993 0.851706028 1.170774206e-24
vn 2.876936476e-24 -1.590678062e-23 1
v -0.209691003 0.8402249217 1.988512449e-24
vn 5.158203056e-23 1.718044388e-23 1
v -0.335570991 1.119948983 7.900505075e-25
vn 0 -4.899400512e-23 1
v 0.1770520061 1.615689993 9.798536756e-24
vn -1.097475787e-22 -1.21785899e-22 1
v 0.1995389909 1.494565964 -2.218792386e-24
vn -2.396984027e-22 -7.546378472e-23 1
v 0.1923840195 1.636132002 6.935461454e-25
vn -1.814015786e-23 -2.252422552e-23 1
v 0.158416003 1.573915005 -3.102444987e-24
vn 2.017205308e-22 1.098246725e-22 1
v 0.2331490219 1.568101048 3.604981678e-25
vn 1.030918393e-22 3.703277858e-23 1
v 0.2584379911 1.476155996 1.426238133e-24
vn 5.600144392e-23 1.718044388e-23 1
v 0.3477500081 1.493031979 -7.322530355e-25
vn -1.447023967e-22 -1.590678062e-23 1
v 0.366147995 1.516541958 7.042012995e-24
vn 5.22660487e-23 -1.590678062e-23 1
v 0.3039239943 1.567126036 8.6567488e-26
vn 4.65995977e-23 -2.252422552e-23 1
v 0.3319070041 1.651465058 -1.76655184e-24
vn 6.228444966e-23 3.703277858e-23 1
v 0.3845469952 1.540050983 4.200948589e-25
vn 2.073546133e-22 3.703277858e-23 1
v 0.3308849931 1.57633698 -2.749665404e-24
vn -3.702772672e-23 -1.590678062e-23 1
v 0.3841299713 1.605152965 2.585637951e-24
vn -5.782588734e-22 -2.011952378e-22 1
v 0.3692150116 1.618625045 -6.964584719e-24
vn 9.638413967e-25 3.703277858e-23 1
v 0.3865909874 1.567006946 -1.734326724e-25
vn 7.603937551e-23 -2.671890819e-24 1
v 0.3140189946 1.659641981 1.850367128e-24
vn 8.192188603e-23 -8.208122962e-23 1
v 0.2432489991 1.658501029 -1.965399219e-24
vn 4.481820936e-24 3.703277858e-23 1
v 0.388635993 1.593961954 4.68919038e-24
vn -5.552814379e-22 -1.813429031e-22 1
v 0.2685390115 1.566555977 -8.996591804e-25
vn 1.927741445e-23 1.718044388e-23 1
v 0.3671709895 1.591668963 9.284062578e-25
vn 1.576357144e-22 5.688511329e-23 1
v 0.2077160031 1.556915998 8.067778296e-24
vn -1.499554909e-22 -2.252422552e-23 1
v 0.3796249926 1.616343021 -6.792088943e-25
vn -1.462356469e-21 -8.960269398e-22 1
v 0.2178159803 1.647317052 -3.96288861e-25
vn 1.033743336e-22 3.703277858e-23 1
v 0.1655710042 1.532006979 -2.641670938e-24
vn 2.017204172e-22 1.098246725e-22 1
v 0.3487719893 1.568160057 2.508605782e-25
vn -1.236765777e-22 1.718044388e-23 1
v 0.1551119983 1.552584052 3.001932275e-24
vn 1.306280831e-22 9.658978269e-23 1
v -0.1047164053 0.5502069592 -2.031204024e-24
vn -2.056443037e-24 -3.945554082e-24 -1
v -0.03162299842 0.7207649946 -1.550204567e-24
vn -4.59010945e-24 9.289335719e-24 -1
v 0.200025022 0.7162259817 1.454884335e-25
vn 4.825079954e-24 2.671890819e-24 -1
v 0.2532686293 0.9018913507 -8.326856784e-25
vn 1.614931689e-24 2.671890819e-24 -1
v 0.6612158418 0.87433213 -3.189039037e-24
vn -9.335757028e-24 -2.379788878e-23 -1
v 0.7071624994 0.7023514509 2.703056544e-24
vn -2.1638145e-24 -3.945554082e-24 -1
v 0.2490344942 0.3969420195 -5.02657337e-25
vn 1.499060052e-24 -3.945554082e-24 -1
v 0.009668626823 0.9001566768 7.058862965e-25
vn -3.322629279e-24 2.671890819e-24 -1
v 0.8461666703 0.7635854483 2.289542757e-24
vn -7.507520604e-24 -1.056299898e-23 -1
v 0.5008490086 0.5438380241 1.969125995e-25
vn 5.730438457e-25 2.671890819e-24 -1
v 0.9702215195 0.8489630222 1.153780071e-24
vn -1.225567203e-23 -1.056299898e-23 -1
v 0.5838849545 0.6326690316 -2.301984474e-24
vn -3.473287513e-24 2.671890819e-24 -1
v 0.8554475904 0.9082977772 -2.488769184e-24
vn -1.72140395e-24 -4.365022348e-23 -1
v -0.2066640109 0.706345737 6.759203797e-25
vn -6.279094175e-24 2.671890819e-24 -1
v 0.8505854607 0.5739279985 -7.050508435e-25
vn -1.130626609e-23 2.671890819e-24 -1
v 0.5012469888 -0.3248749971 -3.566577217e-25
vn 1.974437988e-25 -3.945554082e-24 -1
v -0.2823571563 0.5022002459 -3.05647116e-25
vn -1.14267853e-24 2.671890819e-24 -1
v -0.4329553246 0.3900270462 -1.029943996e-24
vn 7.470424026e-25 2.671890819e-24 -1
v 0.5281999707 -0.538688004 -2.605577002e-25
vn -8.119832565e-25 2.671890819e-24 -1
v 0.4669970274 -0.1157225072 -9.543434004e-26
vn -5.153752046e-25 2.671890819e-24 -1
v 0.0505152531 0.1217257529 -2.400355577e-25
vn -8.560106868e-27 2.671890819e-24 -1
v -0.4943844676 0.5278490186 6.571545374e-26
vn 3.935406806e-23 9.289335719e-24 -1
v -0.1225624979 -0.364623487 -2.386126498e-25
vn -1.254031671e-24 -3.945554082e-24 -1
v -0.4680642188 0.6651074886 7.144199966e-25
vn 7.862345506e-24 2.671890819e-24 -1
v -0.0713839978 -0.7569774985 1.154376549e-24
vn -1.546271504e-24 9.289335719e-24 -1
v -0.09658899903 -0.5372160077 -1.130600577e-24
vn -1.499637646e-25 2.671890819e-24 -1
v 0.5428569913 -0.7017530203 1.39880796e-24
vn -1.999915039e-24 9.289335719e-24 -1
v 0.5892195106 0.3026124835 7.823359902e-25
vn -8.87228113e-25 2.671890819e-24 -1
v 0.492446959 -1.051494002 -4.413195165e-24
vn -5.744138013e-25 -3.945554082e-24 -1
v -0.06116300076 -1.013492703 -8.638610669e-25
vn -3.043183981e-24 2.671890819e-24 -1
v 0.5262989998 -0.8494049907 -3.741592517e-24
vn 7.630672244e-25 1.590678062e-23 -1
v -0.5643849969 0.08628675342 -1.705140226e-25
vn 3.337351494e-25 -3.945554082e-24 -1
v 0.239356488 -1.534595966 -8.34966433e-24
vn -1.527265163e-23 2.252422552e-23 -1
v -0.04643274844 -1.310563803 8.817548974e-25
vn -2.60965699e-24 -3.945554082e-24 -1
v -0.0854889974 -1.155197978 -1.271578402e-24
vn -6.433251401e-24 -2.379788878e-23 -1
v -0.6188210249 -1.072428584 3.762128933e-24
vn -5.5371488e-24 -1.718044388e-23 -1
v -0.6555749774 -0.9545996785 -1.8408156e-24
vn -5.787160515e-24 9.289335719e-24 -1
v -0.06460949779 -1.500445843 -9.736483182e-25
vn -1.679052374e-24 -3.945554082e-24 -1
v 0.4226747453 -1.250632167 -9.645019691e-24
vn -1.552200898e-23 -1.056299898e-23 -1
v -0.7203990221 -0.5769640207 -4.319083961e-25
vn -2.724346716e-24 9.289335719e-24 -1
v -0.3653052449 -1.522196531 -2.230867086e-24
vn 5.900939106e-24 -3.703277858e-23 -1
v -0.727816999 -0.01845899969 3.136554408e-26
vn -1.609666536e-24 2.671890819e-24 -1
v -0.2472017407 -1.624576569 1.000133002e-23
vn -1.139337527e-23 -1.056299898e-23 -1
v -0.726189971 -0.1703214943 -5.09407324e-25
vn 6.039482606e-25 -3.945554082e-24 -1
v -0.5913894773 0.243579492 -6.577097722e-25
vn -4.505417344e-24 2.671890819e-24 -1
v -0.8069890141 0.4281780124 -1.048757786e-25
vn 6.33824691e-24 -3.945554082e-24 -1
v -0.6961730123 -0.7555055022 -3.024388778e-24
vn 1.681017427e-24 2.671890819e-24 -1
v -0.7319689989 -0.3965750039 1.775899053e-24
vn -1.702471682e-24 -3.945554082e-24 -1
v -1.022648573 0.7344219685 -1.943021602e-25
vn 1.754445744e-23 2.914167042e-23 -1
v -0.7568454742 0.2807745039 9.706866386e-25
vn -1.751921773e-25 2.671890819e-24 -1
v -0.9103940129 0.5870119929 -1.695257032e-25
vn -5.929144631e-25 2.671890819e-24 -1
v -0.7299045324 0.1206070036 -3.87274646e-25
vn -1.138935583e-24 2.671890819e-24 -1
v -1.092159152 0.8378080726 -1.221297887e-24
vn 5.094226121e-23 1.590678062e-23 -1
v -0.6680629849 0.8211460114 4.59040764e-24
vn -1.652796756e-23 2.914167042e-23 -1
v -0.9264074564 0.9931919575 2.487354954e-24
vn 4.97355817e-24 -2.379788878e-23 -1
v -0.5452820063 0.5558519959 1.397043475e-24
vn 3.802698472e-24 -3.945554082e-24 -1
v -0.1306439936 -0.1967879981 -1.936250464e-25
vn -3.091302327e-25 -3.945554082e-24 -1
v -0.7073420286 0.5875300169 7.329055714e-25
vn 5.10295818e-24 -3.945554082e-24 -1
v -0.7969480157 0.7098760009 -1.882727237e-25
vn -7.43619969e-24 2.252422552e-23 -1
v -0.5704550147 -1.186228991 1.957085513e-25
vn 2.193541737e-24 -3.945554082e-24 -1
v -0.08036449552 -1.681341171 -6.572150479e-24
vn -1.738181167e-23 1.548731235e-22 -1
v -0.3402125239 0.7367879748 -5.797532063e-25
vn 3.921504967e-25 2.671890819e-24 -1
v -0.4843787253 -1.35862577 -2.223032119e-24
vn 1.004353092e-23 1.590678062e-23 -1
v 0.4951149821 0.1054800004 -1.323262646e-25
vn -3.991835368e-25 2.671890819e-24 -1
v 0.0968285054 1.03354001 -8.004805798e-27
vn 1.102634891e-25 -3.945554082e-24 -1
v 0.2143657506 1.083362699 1.429603216e-24
vn -1.226570732e-24 -3.945554082e-24 -1
v -0.7813490033 0.9478644729 8.459240265e-24
vn -9.359247728e-24 -3.945554082e-24 -1
v 0.1228470057 1.260602951 6.645335176e-25
vn 3.46902719e-23 4.899400512e-23 -1
v 0.3216890097 1.161401987 2.939355883e-24
vn 6.443845645e-23 1.718044388e-23 1
v 0.329126507 -1.422952175 -1.297642268e-24
vn -9.343020859e-24 -3.945554082e-24 -1
v -0.9240846634 0.8353099227 7.410767603e-24
vn 1.338237247e-24 1.590678062e-23 -1
v -0.6417497396 0.3890952468 1.272839594e-24
vn 9.192793344e-25 2.671890819e-24 -1
v -0.5938959718 0.7103930116 -1.061261725e-25
vn -3.458381591e-24 2.671890819e-24 -1
v -1.042264819 0.9618242383 7.949121783e-24
vn 3.474458024e-23 2.671890819e-24 -1
v 0.1213959828 -1.635537267 4.69856757e-24
vn -2.096564621e-23 9.289335719e-24 -1
v 0.9622685313 0.6884459257 -6.011655734e-24
vn -3.522949935e-23 9.289335719e-24 -1
v 0.7246890664 0.4692359865 2.226938558e-24
vn 6.939513931e-24 -3.945554082e-24 -1
v 0.2027429938 0.2636600137 -4.783544061e-25
vn -1.007081427e-24 -3.945554082e-24 -1
v 0.2230480015 1.477699995 2.207120203e-24
vn -6.389367542e-23 -2.671890819e-24 1
v 0.3207890093 1.483821988 3.265273964e-24
vn 2.68008803e-23 3.041533368e-23 1
v 0.3647100031 1.629816055 -2.450692643e-24
vn -3.635715771e-22 -1.151684541e-22 1
v 0.2786340117 1.659070969 6.320291253e-24
vn -6.594981297e-23 -5.561145002e-23 1
v 0.3497940004 1.643288016 -4.701451645e-24
vn 2.832385516e-23 1.032072276e-22 1
v 0.1688749939 1.553339005 -8.266773193e-24
vn -1.556097934e-22 -1.590678062e-23 1
v 0.1760299951 1.511430979 -1.188553948e-24
vn 9.243408868e-23 1.718044388e-23 1
v -0.3802739978 0.7762879729 1.528549645e-24
vn 4.17974101e-23 1.958514562e-22 1
v -0.4077799916 0.7766600251 3.764997231e-24
vn 7.102725624e-23 3.414352566e-22 1
v -0.2741639912 0.8398630023 1.337467122e-24
vn -6.648127803e-23 3.041533368e-23 1
v -0.2520810068 0.7996010184 -2.202577942e-24
vn 2.74392581e-23 -6.222889492e-23 1
v -0.3377450109 1.099866033 4.447585951e-25
vn -3.323538728e-33 -4.237656022e-23 1
v -0.400447011 1.099866033 4.447585951e-25
vn -2.072843731e-23 -8.208122962e-23 1
v 0.389470011 1.375257015 -2.649092541e-24
vn 1.241434903e-23 -3.575911532e-23 1
v 0.4137229919 1.350775003 -1.277980502e-24
vn -2.435811634e-22 -2.011952378e-22 1
v 0.2536970079 1.225540996 2.121514004e-24
vn 1.782583939e-23 -1.718044388e-23 -1
v 0.2525559962 1.419278979 -6.607389981e-25
vn -7.143765008e-24 3.703277858e-23 1
v 0.4185560346 1.319689035 -3.03736199e-24
vn 2.450172942e-22 1.230595623e-22 1
v 0.3943020105 1.344172001 -3.247179664e-24
vn 1.318501865e-22 1.164421174e-22 1
v 0.2955349982 1.300477028 -3.276313875e-24
vn -4.288277857e-23 -2.671890819e-24 1
v 0.4177669883 1.262539029 1.59926077e-24
vn -1.792105427e-22 -3.575911532e-23 1
v 0.1228470057 1.260602951 6.645335176e-25
vn 5.303849104e-25 3.041533368e-23 1
v 0.1334110051 1.226742983 8.507673564e-25
vn -4.728679179e-24 -3.575911532e-23 1
# mm_gid 0
g mmGroup0
f 31//31 23//23 25//25 
f 37//37 6//6 179//179 
f 64//64 9//9 173//173 
f 2//2 31//31 25//25 
f 2//2 25//25 26//26 
f 34//34 24//24 183//183 
f 158//158 34//34 183//183 
f 158//158 183//183 20//20 
f 13//13 189//189 34//34 
f 14//14 13//13 34//34 
f 14//14 34//34 3//3 
f 190//190 16//16 12//12 
f 34//34 190//190 12//12 
f 34//34 12//12 3//3 
f 5//5 37//37 179//179 
f 5//5 179//179 180//180 
f 40//40 63//63 60//60 
f 179//179 40//40 60//60 
f 179//179 60//60 180//180 
f 38//38 45//45 4//4 
f 5//5 38//38 4//4 
f 5//5 4//4 39//39 
f 42//42 47//47 44//44 
f 41//41 42//42 44//44 
f 8//8 64//64 173//173 
f 8//8 173//173 174//174 
f 67//67 89//89 87//87 
f 173//173 67//67 87//87 
f 173//173 87//87 174//174 
f 65//65 168//168 84//84 
f 8//8 65//65 84//84 
f 8//8 84//84 66//66 
f 69//69 7//7 82//82 
f 68//68 69//69 82//82 
f 17//17 35//35 15//15 
f 12//12 17//17 15//15 
f 12//12 15//15 3//3 
f 22//22 36//36 32//32 
f 93//93 155//155 11//11 
f 93//93 11//11 10//10 
f 91//91 97//97 93//93 
f 92//92 91//91 93//93 
f 92//92 93//93 10//10 
f 92//92 10//10 99//99 
f 96//96 92//92 99//99 
f 96//96 99//99 117//117 
f 101//101 166//166 117//117 
f 99//99 101//101 117//117 
f 101//101 10//10 95//95 
f 166//166 101//101 95//95 
f 166//166 95//95 104//104 
f 95//95 94//94 98//98 
f 104//104 95//95 98//98 
f 104//104 98//98 165//165 
f 100//100 165//165 98//98 
f 100//100 98//98 102//102 
f 96//96 117//117 153//153 
f 167//167 96//96 153//153 
f 167//167 153//153 110//110 
f 106//106 167//167 110//110 
f 106//106 110//110 107//107 
f 106//106 113//113 151//151 
f 106//106 151//151 103//103 
f 108//108 116//116 114//114 
f 115//115 108//108 114//114 
f 115//115 114//114 136//136 
f 120//120 118//118 119//119 
f 114//114 120//120 119//119 
f 114//114 119//119 126//126 
f 118//118 128//128 124//124 
f 119//119 118//118 124//124 
f 119//119 124//124 125//125 
f 123//123 159//159 127//127 
f 123//123 127//127 152//152 
f 159//159 122//122 127//127 
f 123//123 152//152 149//149 
f 124//124 123//123 149//149 
f 124//124 149//149 125//125 
f 110//110 109//109 146//146 
f 121//121 110//110 146//146 
f 121//121 146//146 133//133 
f 122//122 164//164 127//127 
f 130//130 152//152 127//127 
f 125//125 126//126 119//119 
f 129//129 137//137 112//112 
f 115//115 129//129 112//112 
f 115//115 112//112 105//105 
f 137//137 133//133 146//146 
f 112//112 137//137 146//146 
f 112//112 146//146 109//109 
f 133//133 131//131 121//121 
f 132//132 130//130 127//127 
f 164//164 132//132 127//127 
f 121//121 141//141 134//134 
f 121//121 134//134 107//107 
f 134//134 139//139 161//161 
f 134//134 161//161 107//107 
f 138//138 142//142 163//163 
f 160//160 138//138 163//163 
f 140//140 138//138 148//148 
f 147//147 140//140 148//148 
f 147//147 148//148 162//162 
f 161//161 135//135 147//147 
f 145//145 161//161 147//147 
f 145//145 147//147 162//162 
f 143//143 162//162 148//148 
f 160//160 143//143 148//148 
f 160//160 148//148 138//138 
f 163//163 144//144 160//160 
f 156//156 143//143 160//160 
f 107//107 161//161 145//145 
f 135//135 140//140 147//147 
f 139//139 135//135 161//161 
f 141//141 139//139 134//134 
f 131//131 141//141 121//121 
f 150//150 132//132 164//164 
f 136//136 129//129 115//115 
f 126//126 136//136 114//114 
f 107//107 110//110 121//121 
f 128//128 123//123 124//124 
f 128//128 159//159 123//123 
f 116//116 120//120 114//114 
f 105//105 108//108 115//115 
f 109//109 105//105 112//112 
f 153//153 109//109 110//110 
f 107//107 111//111 113//113 
f 107//107 113//113 106//106 
f 90//90 167//167 106//106 
f 103//103 90//90 106//106 
f 90//90 96//96 167//167 
f 94//94 102//102 98//98 
f 10//10 94//94 95//95 
f 10//10 101//101 99//99 
f 90//90 92//92 96//96 
f 90//90 91//91 92//92 
f 68//68 82//82 80//80 
f 169//169 70//70 75//75 
f 72//72 169//169 75//75 
f 72//72 75//75 79//79 
f 71//71 74//74 83//83 
f 88//88 71//71 83//83 
f 88//88 83//83 172//172 
f 75//75 70//70 88//88 
f 73//73 75//75 88//88 
f 73//73 88//88 172//172 
f 78//78 81//81 77//77 
f 83//83 78//78 77//77 
f 83//83 77//77 172//172 
f 76//76 85//85 170//170 
f 77//77 76//76 170//170 
f 77//77 170//170 172//172 
f 171//171 80//80 82//82 
f 72//72 171//171 82//82 
f 72//72 82//82 7//7 
f 86//86 66//66 84//84 
f 68//68 86//86 84//84 
f 68//68 84//84 168//168 
f 80//80 86//86 68//68 
f 79//79 171//171 72//72 
f 81//81 76//76 77//77 
f 74//74 78//78 83//83 
f 79//79 75//75 73//73 
f 70//70 71//71 88//88 
f 7//7 169//169 72//72 
f 168//168 69//69 68//68 
f 41//41 44//44 53//53 
f 4//4 45//45 41//41 
f 49//49 4//4 41//41 
f 49//49 41//41 53//53 
f 43//43 56//56 52//52 
f 44//44 43//43 52//52 
f 44//44 52//52 53//53 
f 46//46 50//50 55//55 
f 52//52 46//46 55//55 
f 52//52 55//55 53//53 
f 48//48 176//176 175//175 
f 55//55 48//48 175//175 
f 55//55 175//175 53//53 
f 51//51 178//178 61//61 
f 177//177 51//51 61//61 
f 177//177 61//61 59//59 
f 54//54 62//62 58//58 
f 61//61 54//54 58//58 
f 61//61 58//58 59//59 
f 57//57 39//39 49//49 
f 177//177 57//57 49//49 
f 177//177 49//49 53//53 
f 59//59 57//57 177//177 
f 178//178 54//54 61//61 
f 53//53 51//51 177//177 
f 50//50 48//48 55//55 
f 56//56 46//46 52//52 
f 47//47 43//43 44//44 
f 39//39 4//4 49//49 
f 45//45 42//42 41//41 
f 158//158 22//22 32//32 
f 158//158 32//32 20//20 
f 19//19 33//33 2//2 
f 187//187 19//19 2//2 
f 187//187 2//2 26//26 
f 188//188 21//21 186//186 
f 31//31 188//188 186//186 
f 31//31 186//186 23//23 
f 185//185 182//182 181//181 
f 186//186 185//185 181//181 
f 186//186 181//181 23//23 
f 1//1 29//29 184//184 
f 25//25 1//1 184//184 
f 25//25 184//184 26//26 
f 30//30 18//18 28//28 
f 187//187 30//30 28//28 
f 187//187 28//28 20//20 
f 28//28 18//18 14//14 
f 158//158 28//28 14//14 
f 158//158 14//14 3//3 
f 27//27 33//33 19//19 
f 183//183 27//27 19//19 
f 183//183 19//19 20//20 
f 157//157 27//27 183//183 
f 20//20 28//28 158//158 
f 26//26 30//30 187//187 
f 23//23 1//1 25//25 
f 21//21 185//185 186//186 
f 33//33 188//188 31//31 
f 20//20 19//19 187//187 
f 3//3 22//22 158//158 
f 16//16 17//17 12//12 
f 24//24 190//190 34//34 
f 97//97 154//154 93//93 
f 154//154 155//155 93//93 
f 144//144 156//156 160//160 
f 174//174 65//65 8//8 
f 9//9 67//67 173//173 
f 66//66 64//64 8//8 
f 180//180 38//38 5//5 
f 6//6 40//40 179//179 
f 39//39 37//37 5//5 
f 18//18 13//13 14//14 
f 3//3 34//34 158//158 
f 33//33 31//31 2//2 
